<svg xmlns="http://www.w3.org/2000/svg" width="1254" height="1254" viewBox="0 0 1254 1254" role="img" aria-labelledby="title desc">
  <title id="title">Trend Scope logo — light version</title>
  <desc id="desc">Trend Scope monogram with purple to cyan target ring and Create Success tagline on a light background.</desc>
  <defs>
    <linearGradient id="accent" x1="0%" y1="0%" x2="100%" y2="100%">
      <stop offset="0%" stop-color="#8A2BFF"/>
      <stop offset="48%" stop-color="#6B5CFF"/>
      <stop offset="100%" stop-color="#14B8FF"/>
    </linearGradient>
    <linearGradient id="word" x1="0%" y1="0%" x2="100%" y2="0%">
      <stop offset="0%" stop-color="#07142B"/>
      <stop offset="55%" stop-color="#7C2DFF"/>
      <stop offset="100%" stop-color="#22B9FF"/>
    </linearGradient>
    <filter id="softShadow" x="-20%" y="-20%" width="140%" height="140%">
      <feDropShadow dx="0" dy="18" stdDeviation="18" flood-color="#07142B" flood-opacity="0.18"/>
    </filter>
  </defs>
  <rect width="1254" height="1254" rx="0" fill="#FFFFFF"/>
  <g filter="url(#softShadow)">
    <path d="M327 351h306L589 421H470v214l-74 82V421H315z" fill="#06142C"/>
    <path d="M692 286a299 299 0 0 1 269 168l-72 30a220 220 0 0 0-197-121z" fill="url(#accent)"/>
    <path d="M962 514a299 299 0 0 1-1 189h-78a220 220 0 0 0 0-189z" fill="url(#accent)"/>
    <path d="M921 755A299 299 0 0 1 613 895v-78a220 220 0 0 0 238-94z" fill="url(#accent)"/>
    <path d="M563 827a299 299 0 0 1-64-49v-108a220 220 0 0 0 64 74z" fill="url(#accent)"/>
    <path d="M642 329v74H534a298 298 0 0 1 108-74z" fill="url(#accent)"/>
    <path d="M692 384c105 0 192 73 215 171H764c-17-21-43-34-72-34-52 0-94 42-94 94s42 94 94 94c30 0 56-14 73-35H646v-67h262c-5 119-104 214-216 214-121 0-219-98-219-219s98-218 219-218z" fill="#06142C"/>
    <circle cx="692" cy="615" r="31" fill="url(#accent)"/>
  </g>
  <g font-family="Inter, Montserrat, Arial, sans-serif" text-anchor="middle">
    <text x="627" y="873" font-size="72" letter-spacing="40" font-weight="800" fill="url(#word)">TRENDSCOPE</text>
    <line x1="286" y1="950" x2="362" y2="950" stroke="#8A2BFF" stroke-width="4"/>
    <line x1="892" y1="950" x2="968" y2="950" stroke="#22B9FF" stroke-width="4"/>
    <text x="627" y="968" font-size="32" letter-spacing="24" font-weight="700" fill="#07142B">CREATE SUCCESS</text>
  </g>
</svg>
